<?xml version="1.0" encoding="utf-8"?>
<!-- Generator: Adobe Illustrator 26.5.0, SVG Export Plug-In . SVG Version: 6.00 Build 0)  -->
<svg version="1.0" id="Calque_1" xmlns="http://www.w3.org/2000/svg" xmlns:xlink="http://www.w3.org/1999/xlink" x="0px" y="0px"
	 viewBox="0 0 728.7 744.1" style="enable-background:new 0 0 728.7 744.1;" xml:space="preserve">
<style type="text/css">
	.st0{fill:#59AD71;}
	.st1{fill:#244B30;}
</style>
<image style="overflow:visible;" width="456" height="124" xlink:href="argentBankLogo.png"  transform="matrix(0.5 0 0 0.5 -1258.4495 509)">
</image>
<g>
	<path class="st0" d="M317.1,540.6L288,443.7H167l-29.1,96.9H80.8L185.4,204h85.1l104.6,336.6H317.1z M181.6,395.3h91.9l-45.9-153.1
		L181.6,395.3z"/>
	<path class="st1" d="M631.2,394.1c11.1,13.8,16.7,31.7,16.7,53.7c0,21.4-5.2,39.2-15.7,53.3c-10.5,14.2-27,24.9-49.6,32.1
		c-22.6,7.2-52,10.8-88.3,10.8c-13.5,0-27.9-0.5-43.1-1.6c-15.2-1.1-29.5-2.5-42.6-4.3v-328c14.4-3.2,29.9-5.6,46.4-7.4
		c16.5-1.7,33.1-2.6,49.8-2.6c46.1,0,79.9,7.4,101.3,22.3c21.5,14.9,32.2,38,32.2,69.4c0,18.2-4.7,34-14,47.4
		c-9.3,13.4-22.9,22.6-40.8,27.6C604.1,371.2,620,380.3,631.2,394.1z M465.5,248.6v96.7h48.9c16.8,0,30.3-1.8,40.4-5.5
		c10.1-3.6,17.4-9.1,21.8-16.5c4.5-7.4,6.7-16.8,6.7-28.3c0-12-2.4-21.6-7.1-29c-4.7-7.4-12.2-12.7-22.5-16.2
		c-10.3-3.4-24.1-5.1-41.4-5.1C495.8,244.7,480.2,246,465.5,248.6z M558.6,493.6c12.2-3.9,21-9.7,26.4-17.5
		c5.4-7.8,8.1-18.1,8.1-30.8c0-18.5-5.7-32.1-17.2-40.8c-11.5-8.7-29.6-13.1-54.5-13.1h-55.9v105.8c12.9,1.5,27.4,2.3,43.7,2.3
		C529.9,499.4,546.4,497.5,558.6,493.6z"/>
</g>
</svg>
